# ProBuilder 5.1.1
# https://unity3d.com/unity/features/worldbuilding/probuilder
# 4/14/2024 11:37:34 AM

mtllib ./Coin.mtl
o Coin

g Coin
v -0.05000001 -6.897609E-09 0
v -0.05000001 0.025 0
v -0.01545084 -1.242793E-08 0.04755282
v -0.01545083 0.02499999 0.04755282
v 0.04045084 -2.137617E-08 0.02938926
v 0.04045084 0.02499999 0.02938926
v 0.04045084 -2.137617E-08 -0.02938926
v 0.04045084 0.02499999 -0.02938926
v -0.01545087 -1.242793E-08 -0.04755282
v -0.01545086 0.02499999 -0.04755282
v -2.385244E-15 -1.490116E-08 0
v 4.001774E-09 0.02499999 0

vt -0.02938928 -1.490116E-08
vt -0.02938928 0.02499999
vt 0.02938925 -1.490116E-08
vt 0.02938925 0.02499999
vt -0.05000001 0
vt 0 0
vt -0.01545084 0.04755282
vt 0.05000001 0
vt 0.01545084 0.04755282
vt 0.04045084 0.02938926
vt -0.04045084 0.02938926
vt 0.04045084 -0.02938926
vt -0.04045084 -0.02938926
vt -0.01545087 -0.04755282
vt 0.01545087 -0.04755282

vn -1 1.60071E-07 1.841885E-07
vn -0.3090168 4.946462E-08 0.9510566
vn 0.8090171 -1.295002E-07 0.5877852
vn 0.8090169 -1.295002E-07 -0.5877852
vn -0.3090171 4.946467E-08 -0.9510565
vn -1.60071E-07 -1 0
vn 1.60071E-07 1 0

usemtl mat_Gold
f 1/5/6 11/6/6 3/7/6
f 3/7/6 11/6/6 5/10/6
f 5/10/6 11/6/6 7/12/6
f 7/12/6 11/6/6 9/14/6
f 9/14/6 11/6/6 1/5/6
f 4/9/7 12/6/7 2/8/7
f 6/11/7 12/6/7 4/9/7
f 8/13/7 12/6/7 6/11/7
f 10/15/7 12/6/7 8/13/7
f 2/8/7 12/6/7 10/15/7
f 4/4/2 2/2/1 1/1/1
f 1/1/1 3/3/2 4/4/2
f 6/4/3 4/2/2 3/1/2
f 3/1/2 5/3/3 6/4/3
f 8/4/4 6/2/3 5/1/3
f 5/1/3 7/3/4 8/4/4
f 10/4/5 8/2/4 7/1/4
f 7/1/4 9/3/5 10/4/5
f 2/4/1 10/2/5 9/1/5
f 9/1/5 1/3/1 2/4/1

